Love for All and Sharing is the first step to solving all the problems of humanity.

Website I want to share. 
               
   http://www.scenetime.com
 
 
  Credit to EVERYONE for sharing and seeding back
 especially to SCENETIME.COM where i get all my 
 downloads.


 support www.scenetime.com to grow faster.

                             
                                                            
                                                   

.                 ..................................NFO:....................................[center][img]http://leetleech.org/images/90463135802222593550.png[/img]

[title]Cocktail 1988 DVDRip XviD AC3-LEGi0N[/title][/center]

[img]http://leetleech.org/images/48874973695367351744.png[/img]
[color=red]General[/color]
Format: AVI
File size: 1.42 GiB
Duration: 1h 44mn
Overall bit rate: 1 946 Kbps
IMDb Rating: 6.7/10   7,724 votes
IMDb Link  : http://www.imdb.com/title/tt0780516/
Genre: Crime | Drama | Thriller
Source: RETAiL  

[color=red]Video[/color]
Format : MPEG-4 Visual
Format profile : Advanced Simple@L5
Format settings, BVOP: Yes
Format settings, QPel: No
Format settings, GMC : No warppoints
Format settings, Matrix : Default (H.263)
Muxing mode : Packed bitstream
Codec ID : XVID
Codec ID/Hint : XviD
Duration : 1h 44mn
Bit rate : 1 493 Kbps
Width : 720 pixels
Height : 400 pixels
Display aspect ratio : 16:9
Frame rate : 25.000 fps
Color space : YUV
Chroma subsampling : 4:2:0
Bit depth : 8 bits
Scan type : Progressive
Bits/(Pixel*Frame) : 0.207
Stream size : 1.09 GiB (77%)

[color=red]Audio[/color]
Bit rate : 448 Kbps
Channel(s) : 6 channels
Channel positions : Front: L C R, Side: L R, LFE
Sampling rate : 48.0 KHz
Stream size : 334 MiB (23%)


[img]http://leetleech.org/images/89524873606771859129.png[/img]

After leaving the Army, Brian Flanagan tries to get a 
marketing job in New York. But without a college degree, 
this was not possible. 
He then decides to start studying for a business degree at the 
local City College and gets a part time job as a bartender. 
He realizes that its not that easy, but when his new boss Douglas Coughlin 
teaches him the secrets of the bar trade and they become 
the most famous bartenders in town

[img]http://leetleech.org/images/84434050717770922575.png[/img]


Demi Moore... Laura Quinn
Michael Caine... Mr. Hobbs
Lambert Wilson... Finch
Nathaniel Parker... Oliver 'Ollie' Ashtoncroft
Shaughan Seymour... Eaton
Nicholas Jones... Jameson
David Barras... Fenton
Joss Ackland... Sir Milton Kendrick Ashtoncroft
Silas Carson... Reece
Derren Nesbitt... Sir Clifton Sinclair
Rosalind March... Penelope
Kevan Willis... Lewis
Stanley Townsend... Henry
Jonathan Aris... J.M. Boyle
Ben Righton... Bryan

[color=red]GREETZ[/color]

Noir | Joshua08 | bigimac | LUSi |

kempas | KaN1vE | mike160 | skillz |

Lungbuster | Sheikh | dillon1369 |

0B5C3N3 | FLAWL3SS | AND ALL P2P!


[img]http://leetleech.org/images/95521316153253938506.png[/img]

[center][img]http://leetleech.org/images/20579889125631643445.png[/img]
[img]http://leetleech.org/images/46360898086787382569.png[/img]
[img]http://leetleech.org/images/95549970096433704305.png[/img]
[img]http://leetleech.org/images/82865179982466556043.png[/img]